<svg viewBox="0 0 39 42" fill="none" xmlns="http://www.w3.org/2000/svg">
<g filter="url(#filter0_d_717_56)">
<path d="M19.1304 40.0001C29.6958 40.0001 38.2608 31.6298 38.2608 21.3045C38.2608 10.9792 29.6958 2.60889 19.1304 2.60889C8.56497 2.60889 0 10.9792 0 21.3045C0 31.6298 8.56497 40.0001 19.1304 40.0001Z" fill="#F4900C"/>
<path d="M19.1304 37.3912C29.6958 37.3912 38.2608 29.0209 38.2608 18.6956C38.2608 8.37031 29.6958 0 19.1304 0C8.56497 0 0 8.37031 0 18.6956C0 29.0209 8.56497 37.3912 19.1304 37.3912Z" fill="#FFCC4D"/>
<path d="M19.1304 35.6524C27.7749 35.6524 34.7826 28.6447 34.7826 20.0003C34.7826 11.3558 27.7749 4.34814 19.1304 4.34814C10.486 4.34814 3.47827 11.3558 3.47827 20.0003C3.47827 28.6447 10.486 35.6524 19.1304 35.6524Z" fill="#FFE8B6"/>
<path d="M19.1304 34.7828C27.7749 34.7828 34.7826 27.7751 34.7826 19.1307C34.7826 10.4862 27.7749 3.47852 19.1304 3.47852C10.486 3.47852 3.47827 10.4862 3.47827 19.1307C3.47827 27.7751 10.486 34.7828 19.1304 34.7828Z" fill="#FFAC33"/>
<path d="M9.56519 12.2749C9.56519 11.6254 10.1703 11.3656 10.1703 11.3656L19.0806 6.95654L28.0758 11.3656C28.0758 11.3656 28.6956 11.511 28.6956 12.2796V13.0435H9.56519V12.2749Z" fill="#FFE8B6"/>
<path d="M27.8267 14.2441C27.8267 13.5807 27.2728 13.0435 26.5906 13.0435H11.5943C10.9111 13.0435 10.435 13.5807 10.435 14.2441C10.435 14.6951 10.6588 15.0835 11.0152 15.2891V16.0456H13.3338V15.4447H15.6524V16.0456H17.971V15.4447H20.2896V16.0456H22.6082V15.4447H24.9268V16.0456H27.2465V15.2585C27.5942 15.0449 27.8267 14.6712 27.8267 14.2441ZM29.5651 26.9253C29.5651 27.1642 29.4734 27.3933 29.3103 27.5622C29.1472 27.7311 28.926 27.826 28.6953 27.826H9.5653C9.33463 27.826 9.11341 27.7311 8.9503 27.5622C8.78719 27.3933 8.69556 27.1642 8.69556 26.9253C8.69556 26.6864 8.78719 26.4573 8.9503 26.2883C9.11341 26.1194 9.33463 26.0245 9.5653 26.0245H28.6964C29.1757 26.0245 29.5651 26.4277 29.5651 26.9253Z" fill="#F4900C"/>
<path d="M28.6956 13.636C28.6953 13.793 28.632 13.9436 28.5197 14.0546C28.4073 14.1657 28.2551 14.2282 28.0962 14.2285H10.1288C9.97625 14.2192 9.83297 14.1528 9.72824 14.0427C9.6235 13.9326 9.56519 13.7871 9.56519 13.636C9.56519 13.4848 9.6235 13.3394 9.72824 13.2293C9.83297 13.1192 9.97625 13.0527 10.1288 13.0435L28.0962 13.0468C28.1747 13.0465 28.2525 13.0615 28.3251 13.091C28.3978 13.1205 28.4638 13.1638 28.5195 13.2185C28.5752 13.2732 28.6194 13.3383 28.6496 13.4099C28.6798 13.4816 28.6954 13.5584 28.6956 13.636ZM12.5253 14.3237H25.702V15.6521H12.5253V14.3237Z" fill="#F4900C"/>
<path d="M13.6653 23.168C13.6653 23.8198 13.3126 24.3478 12.8784 24.3478H12.0914C11.6572 24.3478 11.3044 23.8198 11.3044 23.168V14.2232C11.3044 13.5714 11.6572 13.0435 12.0914 13.0435H12.8784C13.3126 13.0435 13.6653 13.5714 13.6653 14.2232V23.168ZM27.8261 23.168C27.8261 23.8198 27.4745 24.3478 27.0392 24.3478H26.2522C25.818 24.3478 25.4653 23.8198 25.4653 23.168V14.2232C25.4653 13.5714 25.8169 13.0435 26.2522 13.0435H27.0392C27.4734 13.0435 27.8261 13.5714 27.8261 14.2232V23.168ZM18.386 23.168C18.386 23.8198 18.0332 24.3478 17.599 24.3478H16.8121C16.3778 24.3478 16.0251 23.8198 16.0251 23.168V14.2232C16.0251 13.5714 16.3778 13.0435 16.8121 13.0435H17.599C18.0332 13.0435 18.386 13.5714 18.386 14.2232V23.168ZM23.1055 23.168C23.1055 23.8198 22.7528 24.3478 22.3185 24.3478H21.5327C21.0985 24.3478 20.7457 23.8198 20.7457 23.168V14.2232C20.7457 13.5714 21.0985 13.0435 21.5327 13.0435H22.3185C22.7528 13.0435 23.1055 13.5714 23.1055 14.2232V23.168Z" fill="#FFD983"/>
<path d="M27.8261 23.9132C27.8261 24.6339 27.3073 25.2176 26.6668 25.2176H11.5941C11.2866 25.2176 10.9918 25.0802 10.7744 24.8355C10.557 24.5909 10.4348 24.2592 10.4348 23.9132C10.4348 23.5673 10.557 23.2355 10.7744 22.9909C10.9918 22.7463 11.2866 22.6089 11.5941 22.6089H26.6668C27.3062 22.6089 27.8261 23.1926 27.8261 23.9132Z" fill="#FFCC4D"/>
<path d="M29.5651 24.7829C29.5651 25.5035 29.0388 26.0872 28.3889 26.0872H10.7415C10.4295 26.0872 10.1303 25.9498 9.90971 25.7052C9.68911 25.4606 9.56519 25.1288 9.56519 24.7829C9.56519 24.4369 9.68911 24.1052 9.90971 23.8605C10.1303 23.6159 10.4295 23.4785 10.7415 23.4785H28.3878C29.0377 23.4785 29.5651 24.0622 29.5651 24.7829Z" fill="#FFD983"/>
<path d="M31.7391 26.231C31.7391 26.5003 31.6321 26.7585 31.4417 26.9489C31.2514 27.1392 30.9931 27.2462 30.7239 27.2462H8.39482C8.2615 27.2462 8.12949 27.2199 8.00632 27.1689C7.88315 27.1179 7.77124 27.0431 7.67697 26.9489C7.5827 26.8546 7.50792 26.7427 7.4569 26.6195C7.40588 26.4963 7.37962 26.3643 7.37962 26.231C7.37962 26.0977 7.40588 25.9657 7.4569 25.8425C7.50792 25.7193 7.5827 25.6074 7.67697 25.5132C7.77124 25.4189 7.88315 25.3441 8.00632 25.2931C8.12949 25.2421 8.2615 25.2158 8.39482 25.2158H30.7252C31.2846 25.2158 31.7391 25.6703 31.7391 26.231Z" fill="#FFD983"/>
<path d="M27.8261 13.5649C27.8261 12.7963 27.2722 12.1738 26.59 12.1738H11.5941C10.9108 12.1738 10.4348 12.7963 10.4348 13.5649C10.4348 14.0873 10.6586 14.5374 11.015 14.7756V15.6521H13.3335V14.9559H15.6521V15.6521H17.9706V14.9559H20.2892V15.6521H22.6077V14.9559H24.9263V15.6521H27.2459V14.7401C27.5936 14.4927 27.8261 14.0597 27.8261 13.5649Z" fill="#FFCC4D"/>
<path d="M9.56519 12.7201C9.56519 12.1225 10.1703 11.8834 10.1703 11.8834L19.0806 7.82617L28.0758 11.8834C28.0758 11.8834 28.6956 12.0172 28.6956 12.7245V13.0436H9.56519V12.7201Z" fill="#FFD983"/>
<path d="M19.1301 9.56543C19.1301 9.56543 13.1477 12.1848 12.5511 12.4212C11.9534 12.6565 12.153 13.0437 12.5522 13.0437H25.6796C26.2959 13.0437 26.1501 12.6066 25.6609 12.3702C25.1718 12.1349 19.1301 9.56543 19.1301 9.56543Z" fill="#FFAC33"/>
<path d="M28.6956 13.0434C28.6953 13.2739 28.632 13.4948 28.5197 13.6578C28.4073 13.8208 28.2551 13.9125 28.0962 13.913H10.1288C9.97625 13.8993 9.83297 13.8018 9.72824 13.6402C9.6235 13.4786 9.56519 13.2652 9.56519 13.0434C9.56519 12.8216 9.6235 12.6081 9.72824 12.4466C9.83297 12.285 9.97625 12.1874 10.1288 12.1738L28.0962 12.1788C28.1747 12.1783 28.2525 12.2004 28.3251 12.2436C28.3978 12.2868 28.4638 12.3504 28.5195 12.4307C28.5752 12.5111 28.6194 12.6065 28.6496 12.7116C28.6798 12.8168 28.6954 12.9295 28.6956 13.0434Z" fill="#FFD983"/>
</g>
<defs>
<filter id="filter0_d_717_56" x="0" y="0" width="38.2607" height="42" filterUnits="userSpaceOnUse" color-interpolation-filters="sRGB">
<feFlood flood-opacity="0" result="BackgroundImageFix"/>
<feColorMatrix in="SourceAlpha" type="matrix" values="0 0 0 0 0 0 0 0 0 0 0 0 0 0 0 0 0 0 127 0" result="hardAlpha"/>
<feOffset dy="2"/>
<feComposite in2="hardAlpha" operator="out"/>
<feColorMatrix type="matrix" values="0 0 0 0 0 0 0 0 0 0 0 0 0 0 0 0 0 0 0.25 0"/>
<feBlend mode="normal" in2="BackgroundImageFix" result="effect1_dropShadow_717_56"/>
<feBlend mode="normal" in="SourceGraphic" in2="effect1_dropShadow_717_56" result="shape"/>
</filter>
</defs>
</svg>
