<svg  viewBox="0 0 33 33" fill="none" xmlns="http://www.w3.org/2000/svg">
<path d="M16.501 6.83301C15.3558 6.83029 14.3653 7.24405 13.5566 8.05957C12.7504 8.87272 12.3372 9.86062 12.333 10.998C12.3288 12.1384 12.7428 13.1296 13.5576 13.9443C14.3723 14.759 15.3626 15.1724 16.502 15.167L16.501 15.166C17.6423 15.1658 18.632 14.7543 19.4434 13.9443C20.2555 13.1336 20.6684 12.1424 20.667 10.999C20.6655 9.85676 20.2537 8.86701 19.4443 8.05762C18.6349 7.24814 17.6443 6.83577 16.501 6.83301ZM3.16699 9.16699C3.16706 10.4318 3.53534 11.5811 4.26953 12.5996C5.00179 13.6154 5.97092 14.341 7.16406 14.7705L7.83301 15.0117V6.83301H3.16699V9.16699ZM25.167 15.0117L25.8369 14.7705C27.0297 14.3397 27.9983 13.6133 28.7305 12.5977C29.4646 11.5792 29.8329 10.4307 29.833 9.16699V6.83301H25.167V15.0117ZM15.167 23.25L14.7764 23.1621C13.3507 22.8421 12.0832 22.24 10.9678 21.3564C9.86198 20.4805 9.05142 19.3845 8.53223 18.0596L8.42285 17.7812L8.12598 17.7451C5.95562 17.4846 4.15003 16.5425 2.68848 14.9072C1.31939 13.3754 0.59486 11.6044 0.508789 9.5752L0.5 9.16602V7.33301L0.514648 7.01172C0.581755 6.27653 0.884394 5.64495 1.43164 5.09863C1.97922 4.55204 2.61114 4.24951 3.3457 4.18164L3.66699 4.16699H7.83301V0.5H25.167V4.16699H29.333C30.2076 4.16699 30.9446 4.4729 31.5703 5.09863C32.1959 5.7243 32.5011 6.46018 32.5 7.33301V9.16699C32.4999 11.3665 31.773 13.2722 30.3115 14.9072C28.8486 16.5438 27.043 17.4858 24.874 17.7451L24.5771 17.7803L24.4678 18.0596C23.9498 19.3833 23.1403 20.4801 22.0342 21.3574C20.919 22.2419 19.6511 22.8433 18.2246 23.1621L17.833 23.249V29.833H25.167V32.5H7.83301V29.833H15.167V23.25Z" fill="currentColor" stroke="black"/>
</svg>
