<svg viewBox="0 0 20 20" fill="none" xmlns="http://www.w3.org/2000/svg">
<g clip-path="url(#clip0_1146_6)">
<mask id="mask0_1146_6" style="mask-type:luminance" maskUnits="userSpaceOnUse" x="0" y="0" width="20" height="20">
<path d="M20 0H0V20H20V0Z" fill="white"/>
</mask>
<g mask="url(#mask0_1146_6)">
<mask id="mask1_1146_6" style="mask-type:luminance" maskUnits="userSpaceOnUse" x="-2" y="-2" width="24" height="24">
<path d="M21.416 -1.4248H-1.08398V21.0752H21.416V-1.4248Z" fill="white"/>
</mask>
<g mask="url(#mask1_1146_6)">
<mask id="mask2_1146_6" style="mask-type:luminance" maskUnits="userSpaceOnUse" x="-2" y="-2" width="24" height="24">
<path d="M-1.08398 -1.4248H21.416V21.0752H-1.08398V-1.4248Z" fill="white"/>
</mask>
<g mask="url(#mask2_1146_6)">
<path d="M7.26843 6.25186L9.28943 2.22565C9.52311 1.76145 10.0884 1.57514 10.5494 1.80881C10.7294 1.90039 10.8747 2.04881 10.9662 2.23196L12.8767 6.11607C13.0314 6.43501 13.3378 6.64975 13.6883 6.6908L17.6829 7.17079C18.2261 7.2371 18.6145 7.73288 18.5513 8.27918C18.5229 8.50338 18.4218 8.7118 18.2608 8.86969L15.0998 11.9864C14.9703 12.1127 14.9103 12.2896 14.9324 12.4696L15.4598 16.6758C15.5356 17.2789 15.1093 17.8284 14.5093 17.9042C14.2819 17.9326 14.0546 17.8915 13.8525 17.781L10.5147 15.9558C10.2715 15.8232 9.98099 15.82 9.73784 15.9463L6.27687 17.721C5.79057 17.9705 5.1969 17.7747 4.94743 17.2852C4.8527 17.1021 4.82112 16.8968 4.84954 16.6947L5.12427 14.7621C5.26006 13.8179 5.84425 12.9969 6.69055 12.5643L10.5305 10.6033C10.6315 10.5528 10.6726 10.4265 10.622 10.3222C10.581 10.2433 10.4957 10.1959 10.4073 10.2086L5.70847 10.8843C4.99164 10.9854 4.26535 10.7833 3.7001 10.3222L2.13698 9.04653C1.69173 8.68338 1.6191 8.02024 1.98225 7.57183C2.15277 7.36341 2.39592 7.22763 2.66118 7.19289L6.6716 6.67817C6.92739 6.64343 7.15159 6.48554 7.26843 6.25186Z" fill="url(#paint0_linear_1146_6)"/>
<path d="M10.824 2.9422C10.4166 2.85062 9.98398 3.0464 9.7882 3.43797L7.76404 7.46419C7.6472 7.69787 7.42615 7.85576 7.16721 7.89049L3.15679 8.40837C2.89785 8.44311 2.66101 8.56942 2.49365 8.76837L3.97782 9.98097C4.44518 10.3631 5.05148 10.5304 5.6483 10.4452L10.344 9.77255C10.6219 9.73466 10.8934 9.8736 11.0166 10.1231C11.1776 10.442 11.0513 10.8336 10.7324 10.9978L9.50715 11.623L10.9029 11.4209C10.9913 11.4083 11.0797 11.4557 11.1176 11.5346C11.1713 11.6388 11.1271 11.7651 11.0261 11.8157L7.18616 13.7767C6.33987 14.2093 5.75567 15.0303 5.61988 15.9745L5.43989 17.2282C5.60409 17.3924 5.86303 17.4366 6.07777 17.326L9.53242 15.5514C9.9082 15.3587 10.3534 15.365 10.7229 15.5671L14.0607 17.3924C14.1807 17.4587 14.3197 17.4839 14.4554 17.4682C14.8091 17.4239 15.0649 17.0955 15.0207 16.7324L14.4965 12.523C14.4586 12.2072 14.566 11.8946 14.7902 11.6736L17.9511 8.55679C18.0048 8.50311 18.0459 8.43995 18.0743 8.37048L14.1839 7.90312C13.8334 7.86207 13.5302 7.64418 13.3723 7.3284L13.2207 7.01578C12.9018 6.87683 12.6397 6.63052 12.4818 6.31159L10.824 2.9422Z" fill="url(#paint1_linear_1146_6)"/>
<path d="M10.7482 1.4141C10.0661 1.0699 9.23868 1.34463 8.89764 2.02672L6.87349 6.05609C6.82296 6.15714 6.72506 6.22661 6.61453 6.23924L2.60412 6.75712C2.22518 6.80449 1.87782 7.00027 1.63783 7.29711C1.1231 7.93498 1.221 8.8697 1.85572 9.38758L3.42199 10.6665C4.08198 11.2033 4.93142 11.4401 5.7714 11.3201L9.09027 10.8433L6.48822 12.1728C5.51247 12.6717 4.84301 13.6127 4.68828 14.699L4.41039 16.6316C4.36934 16.9253 4.41671 17.2221 4.55249 17.4874C4.90932 18.1916 5.77456 18.4726 6.47875 18.1126L9.93656 16.3379C10.0503 16.2779 10.1861 16.2811 10.2998 16.3442L13.6376 18.1663C13.9186 18.321 14.2439 18.3842 14.5628 18.3431C15.4059 18.2358 15.9996 17.4621 15.8954 16.6221L15.3712 12.4127C15.3649 12.3717 15.3807 12.3275 15.4091 12.2991L18.5701 9.18233C18.8006 8.95181 18.949 8.65181 18.9869 8.32971C19.0785 7.54342 18.5227 6.82975 17.7364 6.73501L13.7386 6.25503C13.5397 6.23292 13.3628 6.10661 13.2713 5.92346L11.3639 2.03619C11.2313 1.76778 11.0134 1.54989 10.7482 1.4141ZM9.68394 2.42145C9.8071 2.17514 10.1071 2.07725 10.3503 2.2004C10.445 2.24777 10.524 2.32987 10.5713 2.42776L12.4818 6.31187C12.7029 6.76344 13.1355 7.06975 13.6344 7.12975L17.6322 7.60974C17.9322 7.64448 18.1469 7.9192 18.1122 8.2255C18.0964 8.35182 18.0396 8.46866 17.9511 8.55707L14.7902 11.6738C14.566 11.8949 14.4586 12.2075 14.4965 12.5233L15.0207 16.7326C15.0649 17.0958 14.8091 17.4242 14.4554 17.4684C14.3197 17.4842 14.1807 17.4589 14.0607 17.3926L10.7229 15.5674C10.3534 15.3653 9.90814 15.3621 9.53236 15.5548L6.07455 17.3295C5.80613 17.4653 5.47772 17.3579 5.33878 17.0863C5.28825 16.9853 5.26931 16.8684 5.28509 16.7547L5.55982 14.8253C5.67351 14.0232 6.17245 13.3254 6.88928 12.9591L10.7292 10.998C11.0513 10.8338 11.1776 10.4423 11.0166 10.1233C10.8903 9.87389 10.6219 9.73494 10.344 9.77283L5.64509 10.4454C5.04826 10.5307 4.44513 10.3633 3.97777 9.98125L2.41465 8.70234C2.15571 8.49077 2.11465 8.10866 2.32622 7.84972C2.42411 7.72973 2.56307 7.65078 2.71464 7.63183L6.72506 7.11396C7.12926 7.06344 7.47978 6.81396 7.66293 6.45081L9.68394 2.42145Z" fill="url(#paint2_linear_1146_6)"/>
</g>
</g>
</g>
</g>
<defs>
<linearGradient id="paint0_linear_1146_6" x1="10.1547" y1="1.70776" x2="10.1547" y2="17.9136" gradientUnits="userSpaceOnUse">
<stop stop-color="#FFF0C2"/>
<stop offset="1" stop-color="#FFEBBA"/>
</linearGradient>
<linearGradient id="paint1_linear_1146_6" x1="10.284" y1="2.92009" x2="14.7302" y2="17.4713" gradientUnits="userSpaceOnUse">
<stop stop-color="#FFD147"/>
<stop offset="1" stop-color="#FFB526"/>
</linearGradient>
<linearGradient id="paint2_linear_1146_6" x1="10.1545" y1="1.26569" x2="14.0544" y2="18.3526" gradientUnits="userSpaceOnUse">
<stop stop-color="#E58F0D"/>
<stop offset="1" stop-color="#EB7814"/>
</linearGradient>
<clipPath id="clip0_1146_6">
<rect width="20" height="20" fill="white"/>
</clipPath>
</defs>
</svg>
