<svg viewBox="0 0 39 42" fill="none" xmlns="http://www.w3.org/2000/svg">
<g filter="url(#filter0_d_517_89)">
<path d="M19.1304 40.0001C29.6958 40.0001 38.2608 31.6298 38.2608 21.3045C38.2608 10.9792 29.6958 2.60889 19.1304 2.60889C8.56497 2.60889 0 10.9792 0 21.3045C0 31.6298 8.56497 40.0001 19.1304 40.0001Z" fill="#F4900C"/>
<path d="M19.1304 37.3912C29.6958 37.3912 38.2608 29.0209 38.2608 18.6956C38.2608 8.37031 29.6958 0 19.1304 0C8.56497 0 0 8.37031 0 18.6956C0 29.0209 8.56497 37.3912 19.1304 37.3912Z" fill="#FFCC4D"/>
<path d="M19.1307 35.6524C27.7751 35.6524 34.7828 28.6447 34.7828 20.0003C34.7828 11.3558 27.7751 4.34814 19.1307 4.34814C10.4862 4.34814 3.47852 11.3558 3.47852 20.0003C3.47852 28.6447 10.4862 35.6524 19.1307 35.6524Z" fill="#FFE8B6"/>
<path d="M19.1307 34.7828C27.7751 34.7828 34.7828 27.7751 34.7828 19.1307C34.7828 10.4862 27.7751 3.47852 19.1307 3.47852C10.4862 3.47852 3.47852 10.4862 3.47852 19.1307C3.47852 27.7751 10.4862 34.7828 19.1307 34.7828Z" fill="#FFAC33"/>
<path d="M9.56543 12.2749C9.56543 11.6254 10.1705 11.3656 10.1705 11.3656L19.0809 6.95654L28.076 11.3656C28.076 11.3656 28.6958 11.511 28.6958 12.2796V13.0435H9.56543V12.2749Z" fill="#FFE8B6"/>
<path d="M27.8269 14.2441C27.8269 13.5807 27.2731 13.0435 26.5909 13.0435H11.5946C10.9113 13.0435 10.4353 13.5807 10.4353 14.2441C10.4353 14.6951 10.659 15.0835 11.0155 15.2891V16.0456H13.3341V15.4447H15.6527V16.0456H17.9713V15.4447H20.2899V16.0456H22.6085V15.4447H24.927V16.0456H27.2467V15.2585C27.5944 15.0449 27.8269 14.6712 27.8269 14.2441ZM29.5653 26.9253C29.5653 27.1642 29.4737 27.3933 29.3106 27.5622C29.1475 27.7311 28.9263 27.826 28.6956 27.826H9.56555C9.33488 27.826 9.11365 27.7311 8.95054 27.5622C8.78743 27.3933 8.6958 27.1642 8.6958 26.9253C8.6958 26.6864 8.78743 26.4573 8.95054 26.2883C9.11365 26.1194 9.33488 26.0245 9.56555 26.0245H28.6967C29.176 26.0245 29.5653 26.4277 29.5653 26.9253Z" fill="#F4900C"/>
<path d="M28.6958 13.636C28.6955 13.793 28.6323 13.9436 28.5199 14.0546C28.4076 14.1657 28.2553 14.2282 28.0964 14.2285H10.1291C9.97649 14.2192 9.83322 14.1528 9.72848 14.0427C9.62374 13.9326 9.56543 13.7871 9.56543 13.636C9.56543 13.4848 9.62374 13.3394 9.72848 13.2293C9.83322 13.1192 9.97649 13.0527 10.1291 13.0435L28.0964 13.0468C28.1749 13.0465 28.2527 13.0615 28.3254 13.091C28.398 13.1205 28.4641 13.1638 28.5197 13.2185C28.5754 13.2732 28.6196 13.3383 28.6498 13.4099C28.68 13.4816 28.6957 13.5584 28.6958 13.636ZM12.5256 14.3237H25.7022V15.6521H12.5256V14.3237Z" fill="#F4900C"/>
<path d="M13.6651 23.168C13.6651 23.8198 13.3123 24.3478 12.8781 24.3478H12.0912C11.6569 24.3478 11.3042 23.8198 11.3042 23.168V14.2232C11.3042 13.5714 11.6569 13.0435 12.0912 13.0435H12.8781C13.3123 13.0435 13.6651 13.5714 13.6651 14.2232V23.168ZM27.8259 23.168C27.8259 23.8198 27.4743 24.3478 27.0389 24.3478H26.252C25.8178 24.3478 25.465 23.8198 25.465 23.168V14.2232C25.465 13.5714 25.8166 13.0435 26.252 13.0435H27.0389C27.4732 13.0435 27.8259 13.5714 27.8259 14.2232V23.168ZM18.3857 23.168C18.3857 23.8198 18.033 24.3478 17.5988 24.3478H16.8118C16.3776 24.3478 16.0248 23.8198 16.0248 23.168V14.2232C16.0248 13.5714 16.3776 13.0435 16.8118 13.0435H17.5988C18.033 13.0435 18.3857 13.5714 18.3857 14.2232V23.168ZM23.1053 23.168C23.1053 23.8198 22.7525 24.3478 22.3183 24.3478H21.5325C21.0982 24.3478 20.7455 23.8198 20.7455 23.168V14.2232C20.7455 13.5714 21.0982 13.0435 21.5325 13.0435H22.3183C22.7525 13.0435 23.1053 13.5714 23.1053 14.2232V23.168Z" fill="#FFD983"/>
<path d="M27.8258 23.9132C27.8258 24.6339 27.3071 25.2176 26.6666 25.2176H11.5938C11.2864 25.2176 10.9915 25.0802 10.7741 24.8355C10.5567 24.5909 10.4346 24.2592 10.4346 23.9132C10.4346 23.5673 10.5567 23.2355 10.7741 22.9909C10.9915 22.7463 11.2864 22.6089 11.5938 22.6089H26.6666C27.306 22.6089 27.8258 23.1926 27.8258 23.9132Z" fill="#FFCC4D"/>
<path d="M29.5654 24.7829C29.5654 25.5035 29.039 26.0872 28.3891 26.0872H10.7417C10.4297 26.0872 10.1305 25.9498 9.90995 25.7052C9.68936 25.4606 9.56543 25.1288 9.56543 24.7829C9.56543 24.4369 9.68936 24.1052 9.90995 23.8605C10.1305 23.6159 10.4297 23.4785 10.7417 23.4785H28.388C29.0379 23.4785 29.5654 24.0622 29.5654 24.7829Z" fill="#FFD983"/>
<path d="M31.7393 26.231C31.7393 26.5003 31.6324 26.7585 31.442 26.9489C31.2516 27.1392 30.9934 27.2462 30.7241 27.2462H8.39506C8.26174 27.2462 8.12973 27.2199 8.00656 27.1689C7.88339 27.1179 7.77148 27.0431 7.67721 26.9489C7.58294 26.8546 7.50816 26.7427 7.45715 26.6195C7.40613 26.4963 7.37987 26.3643 7.37987 26.231C7.37987 26.0977 7.40613 25.9657 7.45715 25.8425C7.50816 25.7193 7.58294 25.6074 7.67721 25.5132C7.77148 25.4189 7.88339 25.3441 8.00656 25.2931C8.12973 25.2421 8.26174 25.2158 8.39506 25.2158H30.7254C31.2849 25.2158 31.7393 25.6703 31.7393 26.231Z" fill="#FFD983"/>
<path d="M27.8258 13.5649C27.8258 12.7963 27.272 12.1738 26.5898 12.1738H11.5938C10.9106 12.1738 10.4346 12.7963 10.4346 13.5649C10.4346 14.0873 10.6583 14.5374 11.0148 14.7756V15.6521H13.3333V14.9559H15.6518V15.6521H17.9704V14.9559H20.2889V15.6521H22.6075V14.9559H24.926V15.6521H27.2457V14.7401C27.5933 14.4927 27.8258 14.0597 27.8258 13.5649Z" fill="#FFCC4D"/>
<path d="M9.56543 12.7201C9.56543 12.1225 10.1705 11.8834 10.1705 11.8834L19.0809 7.82617L28.076 11.8834C28.076 11.8834 28.6958 12.0172 28.6958 12.7245V13.0436H9.56543V12.7201Z" fill="#FFD983"/>
<path d="M19.1299 9.56543C19.1299 9.56543 13.1474 12.1848 12.5508 12.4212C11.9531 12.6565 12.1527 13.0437 12.5519 13.0437H25.6793C26.2957 13.0437 26.1498 12.6066 25.6607 12.3702C25.1716 12.1349 19.1299 9.56543 19.1299 9.56543Z" fill="#FFAC33"/>
<path d="M28.6958 13.0434C28.6955 13.2739 28.6323 13.4948 28.5199 13.6578C28.4076 13.8208 28.2553 13.9125 28.0964 13.913H10.1291C9.97649 13.8993 9.83322 13.8018 9.72848 13.6402C9.62374 13.4786 9.56543 13.2652 9.56543 13.0434C9.56543 12.8216 9.62374 12.6081 9.72848 12.4466C9.83322 12.285 9.97649 12.1874 10.1291 12.1738L28.0964 12.1788C28.1749 12.1783 28.2527 12.2004 28.3254 12.2436C28.398 12.2868 28.4641 12.3504 28.5197 12.4307C28.5754 12.5111 28.6196 12.6065 28.6498 12.7116C28.68 12.8168 28.6957 12.9295 28.6958 13.0434Z" fill="#FFD983"/>
</g>
<defs>
<filter id="filter0_d_517_89" x="0" y="0" width="38.2607" height="42" filterUnits="userSpaceOnUse" color-interpolation-filters="sRGB">
<feFlood flood-opacity="0" result="BackgroundImageFix"/>
<feColorMatrix in="SourceAlpha" type="matrix" values="0 0 0 0 0 0 0 0 0 0 0 0 0 0 0 0 0 0 127 0" result="hardAlpha"/>
<feOffset dy="2"/>
<feComposite in2="hardAlpha" operator="out"/>
<feColorMatrix type="matrix" values="0 0 0 0 0 0 0 0 0 0 0 0 0 0 0 0 0 0 0.25 0"/>
<feBlend mode="normal" in2="BackgroundImageFix" result="effect1_dropShadow_517_89"/>
<feBlend mode="normal" in="SourceGraphic" in2="effect1_dropShadow_517_89" result="shape"/>
</filter>
</defs>
</svg>
