<svg viewBox="0 0 61 48" fill="none" xmlns="http://www.w3.org/2000/svg">
<path d="M21.8148 46.928C0.389515 43.7728 0.750016 22.2582 0.750016 15.75H60.25C60.25 19.0995 60.4023 43.3475 37.2813 47.1065C33.7078 47.6875 25.9798 47.5423 21.8148 46.928Z" fill="#292F33"/>
<path d="M57.429 9.18221C61.7463 -0.572292 42.8498 -0.0122925 38.1178 1.51371C35.5891 1.21986 33.0457 1.07145 30.5 1.06921C14.0693 1.06921 0.750043 6.71821 0.750043 15.8462C0.750043 17.612 1.25929 19.3095 2.18154 20.9055C-5.39071 30.9015 9.61204 32.781 18.2535 30.898C21.9915 31.8377 26.1285 32.375 30.5 32.375C46.9308 32.375 60.25 24.9742 60.25 15.848C60.25 13.3455 59.2193 11.116 57.429 9.18221Z" fill="#66757F"/>
<path d="M30.5 29.75C44.9975 29.75 56.75 24.2655 56.75 17.5C56.75 10.7345 44.9975 5.25 30.5 5.25C16.0025 5.25 4.25 10.7345 4.25 17.5C4.25 24.2655 16.0025 29.75 30.5 29.75Z" fill="#FFCC4D"/>
<path d="M6.00004 14C5.05154 10.2043 9.50004 3.5 18.25 5.25C20 3.5 23.2165 1.75 28.75 1.75C32.25 1.75 38.571 4.85625 35.75 10.5C34 14 27 19.25 18.25 15.75C16.5 17.5 7.75004 21 6.00004 14Z" fill="#77B255"/>
<path d="M20 15.75C19.5642 15.813 19.1757 15.8778 18.8135 15.9443C27.2975 18.9998 34.0385 13.923 35.75 10.5C37.6365 6.72702 35.4332 4.09502 32.7207 2.75977C33.4102 5.94827 30.7467 14.2153 20 15.75Z" fill="#5C913B"/>
<path d="M7.75005 13.9999C8.6688 11.7021 16.5 8.74986 25.25 19.2499C27 20.9999 33.2755 22.0254 35.75 24.4999C37.5 26.2499 35.75 27.9999 28.75 27.9999C21.75 27.9999 4.25005 22.7499 7.75005 13.9999Z" fill="#D99E82"/>
<path d="M9.57178 21.0317C14.0308 25.482 23.9043 28.0002 28.75 28.0002C35.75 28.0002 37.5 26.2502 35.75 24.5002C35.1795 23.9297 34.4025 23.438 33.531 22.9952C27.924 26.028 13.091 22.7432 9.57178 21.0317Z" fill="#B27962"/>
<path d="M46.25 19.2519C45.8843 19.2519 45.5098 19.1924 45.1423 19.0699L39.8923 17.3199C39.0116 17.0263 38.2836 16.3949 37.8684 15.5646C37.4533 14.7343 37.385 13.7731 37.6785 12.8924C37.9721 12.0117 38.6035 11.2837 39.4338 10.8686C40.2641 10.4534 41.2253 10.3851 42.106 10.6786L47.356 12.4286C48.1465 12.6899 48.818 13.2243 49.25 13.936C49.6819 14.6477 49.846 15.4901 49.7128 16.3119C49.5796 17.1337 49.1578 17.8811 48.5231 18.42C47.8885 18.9588 47.0826 19.2538 46.25 19.2519ZM44.5 24.5001H41C40.5359 24.5001 40.0908 24.3158 39.7626 23.9876C39.4344 23.6594 39.25 23.2143 39.25 22.7501C39.25 22.286 39.4344 21.8409 39.7626 21.5127C40.0908 21.1845 40.5359 21.0001 41 21.0001H44.5C44.9642 21.0001 45.4093 21.1845 45.7375 21.5127C46.0657 21.8409 46.25 22.286 46.25 22.7501C46.25 23.2143 46.0657 23.6594 45.7375 23.9876C45.4093 24.3158 44.9642 24.5001 44.5 24.5001Z" fill="#FFE8B6"/>
</svg>
