<svg viewBox="0 0 52 59" fill="none" xmlns="http://www.w3.org/2000/svg">
<path d="M10.5121 3.47352C13.9987 2.34146 23.8867 6.35438 25.1533 7.79804C26.4117 9.23432 18.1969 9.82801 13.7368 10.489C9.13484 11.1813 4.54482 12.0082 3.29015 10.56C2.0364 9.13199 7.0302 4.61296 10.5121 3.47352Z" fill="#F79423"/>
<path d="M34.5086 0.95717C38.4929 -0.206236 49.1774 4.5783 50.4681 6.20817C51.7458 7.85833 42.5584 8.26948 37.5434 8.87515C32.3523 9.4965 27.1529 10.2764 25.8743 8.63362C24.5873 7.00375 30.538 2.10859 34.5113 0.95717" fill="#F79423"/>
<path d="M11.1225 7.56568C13.5166 5.99112 23.8204 7.60164 25.5572 8.59081C27.3106 9.57168 20.6667 11.5583 17.2142 12.9153C13.6641 14.3193 10.1859 15.8589 8.43707 14.854C6.67721 13.8768 8.73852 9.15592 11.1243 7.56568" fill="#F79423"/>
<path d="M20.7818 0.0830564C24.2674 0.395572 27.9356 6.49285 27.5954 7.93743C27.2672 9.37371 20.8215 7.15384 17.0261 6.18495C13.1174 5.19117 9.08509 4.31262 9.43356 2.87634C9.77004 1.42438 17.2879 -0.225772 20.7818 0.0830564Z" fill="#F79423"/>
<path d="M32.7201 6.90035C36.2186 7.20088 39.883 13.3028 39.542 14.7427C39.2018 16.1873 32.7597 13.9628 28.9644 12.9976C25.0667 12.0085 21.0224 11.1179 21.3709 9.67796C21.7009 8.23799 29.2345 6.59613 32.7201 6.90312" fill="#F79423"/>
<path d="M0.343872 47.6023C0.343872 56.2965 12.7689 58.8288 26.0605 58.8288C39.3512 58.8288 51.7808 56.2965 51.7808 47.6023C51.7808 38.9246 39.3521 13.0024 26.0605 13.0024C12.7689 13.0024 0.343872 38.9256 0.343872 47.6023Z" fill="#F79423"/>
<path d="M34.0375 14.0703C34.0377 14.5027 33.9526 14.9308 33.7872 15.3303C33.6218 15.7297 33.3793 16.0927 33.0736 16.3984C32.7679 16.7041 32.4049 16.9466 32.0055 17.112C31.606 17.2774 31.1779 17.3625 30.7455 17.3624H21.3747C20.5016 17.3624 19.6642 17.0155 19.0469 16.3981C18.4295 15.7808 18.0826 14.9434 18.0826 14.0703C18.0826 13.1972 18.4295 12.3599 19.0469 11.7425C19.6642 11.1252 20.5016 10.7783 21.3747 10.7783H30.7446C31.177 10.7781 31.6053 10.8631 32.0048 11.0284C32.4044 11.1937 32.7675 11.4362 33.0733 11.7419C33.3791 12.0477 33.6216 12.4107 33.7871 12.8102C33.9526 13.2097 34.0377 13.6379 34.0375 14.0703Z" fill="#845939"/>
<path d="M32.1264 37.7656C31.1059 36.6768 29.6973 35.9485 28.3597 35.3438C26.9667 34.7095 24.9487 34.1924 24.0619 32.8271C23.3179 31.6839 24.343 30.4846 25.3875 30.1361C27.069 29.571 29.1433 30.2513 30.6192 31.082C31.3548 31.4931 32.131 31.0903 32.4113 30.3537C32.721 29.5381 33.0283 28.7232 33.3332 27.9089C33.5194 27.4138 33.2189 26.7805 32.7764 26.5316C31.435 25.7876 30.0375 25.3802 28.5615 25.1866V22.6938C28.5615 22.0291 28.0075 21.4751 27.3428 21.4751H25.0437C24.3827 21.4751 23.825 22.0291 23.825 22.6938V25.4779C21.5498 26.1343 19.4765 27.5991 18.6689 29.9259C17.771 32.5016 18.3168 35.1686 20.2278 37.1193C21.2529 38.1684 22.6376 38.8571 23.9522 39.4535C25.4355 40.1228 27.2599 40.6049 28.2177 42.0338C29.2428 43.5614 27.9172 45.0686 26.4846 45.501C24.5615 46.0781 22.231 45.2125 20.6159 44.2067C19.9079 43.7642 19.0847 44.2187 18.8275 44.935L17.9369 47.4157C17.747 47.9458 18.0632 48.5082 18.4984 48.7921C20.0222 49.7896 21.771 50.2837 23.5631 50.4902V53.1138C23.5631 53.4706 23.694 53.7435 23.8876 53.9371C23.8999 53.9494 23.9104 53.9614 23.919 53.973C23.93 53.9845 23.9421 53.995 23.9549 54.0044C24.1485 54.2026 24.4214 54.3326 24.7782 54.3326H27.117C27.439 54.3297 27.7469 54.2002 27.9742 53.9722C28.2016 53.7442 28.3301 53.4358 28.332 53.1138V50.2173C30.8607 49.489 32.8151 47.8555 33.8006 45.3185C34.8109 42.7308 33.9518 39.719 32.12 37.7646" fill="#25333A"/>
<path d="M32.1264 36.0822C31.1059 34.9981 29.6973 34.2698 28.3597 33.6651C26.9667 33.0308 24.9487 32.5137 24.0619 31.1447C23.3179 30.0089 24.343 28.8059 25.3875 28.4537C27.069 27.8923 29.1433 28.5689 30.6192 29.3996C31.3548 29.8153 32.131 29.4069 32.4113 28.6713C32.721 27.8576 33.0283 27.0439 33.3332 26.2302C33.5194 25.7314 33.2189 25.0981 32.7764 24.8529C31.435 24.1052 30.0375 23.7014 28.5615 23.5042V21.0114C28.5615 20.3504 28.0075 19.7964 27.3428 19.7964H25.0437C24.3827 19.7964 23.825 20.3504 23.825 21.0114V23.7955C21.5498 24.4528 19.4765 25.9204 18.6689 28.2472C17.771 30.8229 18.3168 33.4899 20.2278 35.4369C21.2529 36.486 22.6376 37.1783 23.9522 37.7711C25.4355 38.4404 27.2599 38.9225 28.2177 40.3514C29.2428 41.8781 27.9172 43.3862 26.4846 43.8214C24.5615 44.3994 22.231 43.5337 20.6159 42.5243C19.9079 42.0846 19.0847 42.54 18.8275 43.2526L17.9369 45.737C17.747 46.2625 18.0632 46.8294 18.4984 47.1134C20.0222 48.1072 21.771 48.605 23.5631 48.8115V51.4351C23.5631 51.7873 23.694 52.0611 23.8876 52.2584C23.8999 52.2707 23.9104 52.2826 23.919 52.2943C23.9318 52.3037 23.9439 52.3142 23.9549 52.3257C24.1485 52.5193 24.4214 52.6502 24.7782 52.6502H27.117C27.4382 52.6473 27.7454 52.5185 27.9726 52.2914C28.1998 52.0644 28.3289 51.7572 28.332 51.4361V48.5358C30.8607 47.8085 32.8151 46.1777 33.8006 43.6379C34.8109 41.0511 33.9518 38.0357 32.12 36.0813" fill="#25333A"/>
</svg>
