<svg viewBox="0 0 60 60" fill="none" xmlns="http://www.w3.org/2000/svg">
<path d="M59.0625 56.25H0.9375C0.375 56.25 0 56.7188 0 57.1875V59.0625C0 59.5312 0.375 60 0.9375 60H59.0625C59.5312 60 60 59.5312 60 59.0625V57.1875C60 56.7188 59.5312 56.25 59.0625 56.25Z" fill="#B2C1C0"/>
<path d="M60 15.9375C60 16.4062 59.5312 16.875 59.0625 16.875H0.9375C0.375 16.875 0 16.4062 0 15.9375V2.8125C0 2.34375 0.375 1.875 0.9375 1.875H59.0625C59.5312 1.875 60 2.34375 60 2.8125V15.9375Z" fill="#428BC1"/>
<path d="M1.875 16.875H58.125V56.25H1.875V16.875Z" fill="#62727A"/>
<path d="M1.875 18.75H58.125V28.125H1.875V18.75ZM1.875 30H58.125V39.375H1.875V30Z" fill="white"/>
<path d="M1.875 0H58.125V1.875H1.875V0Z" fill="#D0D0D0"/>
<path d="M21.375 5.625C21.375 8.25 19.875 10.5 17.7188 11.5312C18.2812 10.6875 18.6562 9.75 18.6562 8.625C18.6562 5.90625 16.4062 3.65625 13.6875 3.65625C11.0625 3.65625 8.90625 5.71875 8.71875 8.25C8.34375 7.5 8.15625 6.65625 8.15625 5.625H3.75C3.75 10.7812 7.96875 15 13.125 15C18.2812 15 22.5 10.7812 22.5 5.625H21.375ZM13.6875 5.4375C15.4688 5.4375 16.9688 6.9375 16.9688 8.71875C16.9688 10.5 15.4688 12 13.6875 12C11.9062 12 10.4063 10.5 10.4063 8.71875C10.4063 6.84375 11.8125 5.4375 13.6875 5.4375Z" fill="#FFE62E"/>
<path d="M4.21875 20.625H7.96875V26.25H4.21875V20.625ZM9.84375 20.625H13.5938V26.25H9.84375V20.625ZM18.2812 20.625H22.0312V26.25H18.2812V20.625ZM23.9062 20.625H27.6562V26.25H23.9062V20.625ZM32.3438 20.625H36.0938V26.25H32.3438V20.625ZM37.9688 20.625H41.7188V26.25H37.9688V20.625ZM46.4062 20.625H50.1562V26.25H46.4062V20.625ZM52.0312 20.625H55.7812V26.25H52.0312V20.625ZM4.21875 31.875H7.96875V37.5H4.21875V31.875ZM9.84375 31.875H13.5938V37.5H9.84375V31.875ZM18.2812 31.875H22.0312V37.5H18.2812V31.875ZM23.9062 31.875H27.6562V37.5H23.9062V31.875ZM32.3438 31.875H36.0938V37.5H32.3438V31.875ZM37.9688 31.875H41.7188V37.5H37.9688V31.875ZM46.4062 31.875H50.1562V37.5H46.4062V31.875ZM52.0312 31.875H55.7812V37.5H52.0312V31.875Z" fill="#B4D7EE"/>
<path d="M19.6875 41.25V56.25H21.5625V45H38.4375V56.25H40.3125V41.25H19.6875Z" fill="#FFE62E"/>
<path d="M25.3125 45H29.0625V56.25H25.3125V45ZM30.9375 45H34.6875V56.25H30.9375V45Z" fill="#B4D7EE"/>
<path d="M29.0625 45H30.9375V56.25H29.0625V45ZM34.6875 45H36.5625V56.25H34.6875V45ZM23.4375 45H25.3125V56.25H23.4375V45Z" fill="white"/>
<path d="M24.375 49.6875H35.625V51.5625H24.375V49.6875ZM40.3125 45H55.3125V54.375H40.3125V45ZM4.6875 45H19.6875V54.375H4.6875V45Z" fill="white"/>
<path d="M40.3125 46.875H53.4375V52.5H40.3125V46.875ZM6.5625 46.875H19.6875V52.5H6.5625V46.875Z" fill="#B4D7EE"/>
<path d="M12.1875 45.9375H14.0625V53.4375H12.1875V45.9375ZM45.9375 45.9375H47.8125V53.4375H45.9375V45.9375Z" fill="white"/>
<path d="M26.25 4.96875C26.8125 4.875 27.6562 4.78125 28.875 4.78125C30.0937 4.78125 30.9375 5.0625 31.5 5.53125C32.0625 6 32.4375 6.75 32.4375 7.59375C32.4375 8.4375 32.1562 9.28125 31.6875 9.75C31.0312 10.4062 30.0937 10.6875 28.9687 10.6875H28.3125V13.9688H26.4375V4.96875H26.25ZM28.125 9.09375C28.3125 9.09375 28.5 9.1875 28.7813 9.1875C29.8125 9.1875 30.4688 8.625 30.4688 7.6875C30.4688 6.84375 29.9062 6.375 28.9687 6.375C28.5937 6.375 28.3125 6.375 28.2188 6.46875V9.09375H28.125ZM41.625 9.28125C41.625 12.2812 39.9375 14.0625 37.5 14.0625C34.9688 14.0625 33.5625 12 33.5625 9.46875C33.5625 6.75 35.1563 4.6875 37.6875 4.6875C40.2188 4.6875 41.625 6.75 41.625 9.28125ZM35.5313 9.375C35.5313 11.1562 36.2812 12.375 37.5937 12.375C38.9062 12.375 39.6562 11.0625 39.6562 9.28125C39.6562 7.6875 38.9062 6.28125 37.5937 6.28125C36.2812 6.28125 35.5313 7.59375 35.5313 9.375ZM43.3125 11.8125C43.875 12.0938 44.625 12.375 45.4688 12.375C46.3125 12.375 46.7813 12 46.7813 11.4375C46.7813 10.875 46.4063 10.5938 45.375 10.125C43.9688 9.5625 43.0313 8.71875 43.0313 7.40625C43.0313 5.8125 44.25 4.6875 46.2188 4.6875C47.1562 4.6875 47.9062 4.875 48.375 5.15625L47.9062 6.84375C47.5312 6.65625 46.9688 6.375 46.125 6.375C45.2812 6.375 44.9063 6.75 44.9063 7.21875C44.9063 7.78125 45.375 8.0625 46.5 8.53125C48 9.09375 48.75 9.9375 48.75 11.25C48.75 12.75 47.625 14.0625 45.375 14.0625C44.4375 14.0625 43.4062 13.7812 42.9375 13.5L43.3125 11.8125ZM52.0312 6.5625H49.7812V4.875H56.25V6.5625H53.9062V13.875H52.0312V6.5625Z" fill="#FFE62E"/>
</svg>
